# xmcd CD database file
#
# Track frame offsets:
#	150
#	13330
#	26781
#	39055
#	52356
#	65677
#	77423
#	88537
#	100190
#	112526
#	126595
#	139211
#	151929
#	164138
#	174726
#	185767
#	199223
#	212884
#	225412
#	237911
#	253757
#	267665
#	281964
#	293525
#
# Disc length: 4064 seconds
#
# Revision: 1
# Processed by: cddbd v1.5.2PL0 Copyright (c) Steve Scherf et al.
# Submitted via: CDex 1.70beta2
#
DISCID=6a0fde18
DTITLE=Miles Davis - The Complete Recordings 1945 - 1960 - CD 05: The Charlie Parker Years Vol. 2 - WAV
DYEAR=1947
DGENRE=Jazz
TTITLE0=Charlie Parker All Stars (with Miles Davis) - Chasin' the Bird (Tk 1)
TTITLE1=Charlie Parker All Stars (with Miles Davis) - Chasin' the Bird (Tk 3)
TTITLE2=Charlie Parker All Stars (with Miles Davis) - Chasin' the Bird (Tk 4) 
TTITLE3=Charlie Parker All Stars (with Miles Davis) - Cheryl (Tk 2) 
TTITLE4=Charlie Parker All Stars (with Miles Davis) - Buzzy (Tk 1)
TTITLE5=Charlie Parker All Stars (with Miles Davis) - Buzzy (Tk 3)
TTITLE6=Charlie Parker All Stars (with Miles Davis) - Buzzy (Tk 5) 
TTITLE7=Miles Davis All Stars (with Charlie Parker) - Milestones (Tk 2)
TTITLE8=Miles Davis All Stars (with Charlie Parker) - Milestones (Tk 3)
TTITLE9=Miles Davis All Stars (with Charlie Parker) - Little Willie Leaps (Tk 2)
TTITLE10=Miles Davis All Stars (with Charlie Parker) - Little Willie Leaps (Tk 3)
TTITLE11=Miles Davis All Stars (with Charlie Parker) - Half Nelson (TK 1)
TTITLE12=Miles Davis All Stars (with Charlie Parker) - Half Nelson (Tk 2)
TTITLE13=Miles Davis All Stars (with Charlie Parker) - Sippin' at Bells (Tk 2)
TTITLE14=Miles Davis All Stars (with Charlie Parker) - Sippin' at Bells (Tk 4)
TTITLE15=Original Charlie Parker Quintet (with Miles Davis) - Dexterity (Tk A - Alternate)
TTITLE16=Original Charlie Parker Quintet (with Miles Davis) - Dexterity (Tk B - Master) 
TTITLE17=Original Charlie Parker Quintet (with Miles Davis) - Bongo Bop (Tk A)
TTITLE18=Original Charlie Parker Quintet (with Miles Davis) - Bongo Bop (Tk B) 
TTITLE19=Original Charlie Parker Quintet (with Miles Davis) - Dewey Square (Prezology) (Tk A)
TTITLE20=Original Charlie Parker Quintet (with Miles Davis) - Dewey Square  (Tk B)
TTITLE21=Original Charlie Parker Quintet (with Miles Davis) - Dewey Square  (Tk C)
TTITLE22=Original Charlie Parker Quintet (with Miles Davis) - The Hymn  (Tk 1) 
TTITLE23=Original Charlie Parker Quintet (with Miles Davis) - The Hymn (Superman)  (Tk B)
EXTD=YEAR: 1947
EXTT0=
EXTT1=
EXTT2=
EXTT3=
EXTT4=
EXTT5=
EXTT6=
EXTT7=
EXTT8=
EXTT9=
EXTT10=
EXTT11=
EXTT12=
EXTT13=
EXTT14=
EXTT15=
EXTT16=
EXTT17=
EXTT18=
EXTT19=
EXTT20=
EXTT21=
EXTT22=
EXTT23=
PLAYORDER=
